<svg width="428" height="428" viewBox="0 0 428 428" fill="none" xmlns="http://www.w3.org/2000/svg">
<rect width="428" height="428" fill="white"/>
<path d="M375.134 232.855L427.775 69.0095H366.163L335.079 166.076L334.692 162.45L334.513 158.813L333.968 155.397L333.56 151.771L332.784 148.323L332.019 144.875L331.076 141.458L330.122 138.042L328.959 134.583L327.859 131.345L326.318 127.928L324.987 124.701L323.247 121.619L321.539 118.381L319.611 115.111L317.724 112.072L313.7 106.539L309.361 101.382L304.75 96.6559L299.615 92.0342L294.469 87.8317L288.936 84.0169L283.025 80.6004L276.894 77.4144L270.595 74.5115L264.129 72.0173L257.453 69.8898L250.62 68.0558L243.347 66.6933L236.105 65.3834L228.675 64.5974L221.234 64.2413L213.395 64L205.587 64.2413L197.738 64.7758L189.752 65.7085L181.745 66.8718L173.749 68.4334L165.554 70.3093L157.547 72.594L149.341 75.2664L141.145 78.096L133.107 81.5649L124.912 85.1805L116.874 89.1944L108.898 93.5856L101.059 98.1653L93.262 103.301L85.622 108.624L78.3593 114.168L71.3376 119.88L64.6408 125.833L58.1537 131.88L52.0543 138.231L46.154 144.697L40.8091 151.373L35.6425 158.049L30.6854 164.745L26.3152 171.777L22.1336 178.694L18.3084 185.716L14.8919 192.958L11.6327 200.042L8.93924 207.273L6.49736 214.316L4.36988 221.558L2.86075 228.799L1.54034 235.874L0.607583 243.115L0.167419 250.189L0 257.054L0.167419 263.95L0.984865 270.793L2.08527 277.427L3.41622 284.145L5.31309 290.601L7.81785 296.71L10.4903 303.03L13.7182 308.962L17.3338 314.673L21.1695 320.018L25.3196 324.965L29.7527 329.702L34.5106 334.082L39.4782 338.117L44.6239 341.963L50.1469 345.39L55.869 348.597L61.8112 351.448L67.8897 353.942L74.3558 356.227L80.8535 358.145L87.4979 359.654L94.4043 361.006L101.248 362.158L108.51 362.756L115.763 363.123H123.015L130.435 362.903L138.117 362.337L145.715 361.593L153.344 360.251L160.963 358.931L168.802 357.013L176.61 354.875L184.239 352.412L192.058 349.75L199.886 346.501L207.484 343.305L215.114 339.459L222.743 335.476L230.394 331.075V318.876L223.896 322.303L217.577 325.352L211.1 328.214L204.602 330.844L197.958 333.129L191.502 335.256L185.015 337.174L178.507 338.715L172.02 340.025L165.554 341.02L159.244 341.963L152.747 342.33L146.48 342.708H140.37L134.061 342.529L128.161 341.963L122.072 341.167L116.329 340.234L110.617 339.071L105.083 337.572L99.571 335.644L94.2052 333.757L89.0909 331.42L84.1233 328.958L79.3235 326.138L74.7751 323.246L70.1743 320.018L66.0033 316.371L61.9684 312.567L58.3319 308.563L54.7371 304.361L51.4883 299.781L48.2395 294.803L45.5671 289.532L43.1042 284.145L40.9978 278.601L39.3 272.889L37.9586 267.125L36.9734 261.256L36.4389 255.345L36.0616 249.215V243.115L36.4389 237.047L37.162 230.717L38.3359 224.628L39.6668 218.309L41.3856 212.01L43.3243 205.701L45.7767 199.644L48.2395 193.356L51.2997 187.204L54.5485 181.126L57.965 175.026L61.9684 169.074L66.0033 163.205L70.3839 157.493L75.1524 151.771L80.1199 146.217L85.4229 140.673L90.9458 135.338L96.668 130.213L102.767 125.267L109.087 120.488L115.574 115.908L122.229 111.517L129.093 107.514L135.979 103.678L143.042 100.24L149.917 97.2012L156.907 94.3192L164.013 91.8983L171.066 89.5612L178.13 87.6643L185.204 85.9351L192.058 84.8032L199.111 83.6924L205.975 82.9166L212.829 82.5291H219.526L226.181 82.6863L232.668 83.0738L239.145 83.8496L245.464 84.9919L251.522 86.3229L257.642 88.0835L263.364 89.9594L269.118 92.2546L274.63 94.7174L279.986 97.6204L284.943 100.628L289.701 104.066L294.469 107.891L298.661 111.884L302.874 116.055L306.699 120.656L310.084 125.644L312.956 130.025L315.429 134.405L317.567 138.797L319.432 143.565L320.973 148.134L322.283 152.892L323.247 157.881L324.19 162.827L324.778 167.952L324.987 173.14L325.186 178.474L324.987 183.819L324.6 189.353L324.013 194.855L323.248 200.388L322.284 206.11L320.974 212.241L319.234 218.309L317.337 224.251L315.231 229.952L312.957 235.517L310.263 241.019L307.423 246.375L304.363 251.751L300.957 256.855L297.32 262.032L293.516 266.978L289.314 271.925L284.723 276.672L279.986 281.472L274.998 286.063L269.653 290.601L272.147 291.198L274.631 291.596L277.146 291.932L279.766 292.341L282.648 292.749L285.509 293.117H288.37H291.21H295.413L299.406 292.918L303.608 292.53L307.612 291.744L310.483 291.199L313.523 290.602L316.394 289.869L319.234 288.905L321.938 287.961L324.778 286.788L327.44 285.677L330.123 284.314L332.785 282.994L335.279 281.663L337.742 280.133L340.236 278.435L342.72 276.884L344.984 275.144L347.3 273.279L349.595 271.361L351.659 269.443L353.787 267.368L355.862 265.251L357.811 263.166L359.687 260.87L361.595 258.575L363.292 256.291L364.823 253.828L366.583 251.333L367.893 248.829L369.392 246.376L370.744 243.714L371.907 241.021L373.028 238.38L374.171 235.519L375.134 232.855Z" fill="#E60012"/>
<path d="M193.384 125.278L189.362 125.401L185.201 125.631L181.179 125.984L177.172 126.552L173.166 126.951L169.174 127.75L165.551 128.486L161.882 129.238L158.305 130.39L154.851 131.541L151.612 132.708L148.357 134.028L145.134 135.333L142.063 137.068L139.008 138.618L136.183 140.322L133.313 142.241L130.442 144.114L127.771 146.033L125.314 148.121L122.643 150.255L120.31 152.527L117.869 154.599L115.581 156.917L113.494 159.374L111.16 162.06L108.903 164.9L106.616 167.955L104.329 171.409L102.026 175.032L160.393 181.342L162.849 177.918L165.321 174.833L168.023 172.361L170.494 170.258L172.413 169.076L174.317 167.756L176.819 166.451L179.659 165.269L182.699 164.378L185.769 163.595L188.794 163.058L192.064 162.628H195.487L198.695 162.828L200.63 163.058L202.533 163.595L204.422 163.948L206.54 164.747L208.643 165.515L210.731 166.451L212.834 167.388L214.753 168.324L214.922 170.258L215.122 172.162L214.922 174.081L214.753 175.954L214.37 177.919L213.801 179.623L213.003 181.342L212.235 183.077L206.356 185.119L200.43 186.899L194.673 188.389L188.977 189.709L185.769 190.461L181.578 191.643L176.42 192.779L170.494 193.931L167.454 194.683L164.399 195.235L160.961 195.834L157.322 196.586L153.53 197.185L149.723 197.907L145.502 198.69L141.326 199.442L133.88 200.962L127.018 202.681L120.57 204.6L114.629 206.673L109.272 208.975L104.328 211.478L99.7535 213.965L95.7161 216.805L92.308 219.86L89.0995 222.93L85.9831 226.154L83.1583 229.593L82.007 231.496L80.6714 233.431L79.735 235.319L78.5682 237.422L77.601 239.663L76.6645 241.843L75.8817 244.315L75.1601 246.802L74.5305 249.212L74.2083 251.53L73.8247 253.818L73.6101 256.12V258.193L73.8247 260.281L73.9937 262.384L74.3623 264.472L74.9306 266.391L75.5138 268.294L76.0821 270.244L76.8804 272.102L77.8322 273.882L78.7227 275.525L79.8741 277.075L81.0408 278.826L82.3764 280.361L83.7427 281.85L85.2164 283.385L86.9512 284.721L88.6859 286.072L90.39 287.192L92.4931 288.39L94.5657 289.28L96.8991 290.232L99.3707 290.968L102.226 291.598L105.082 292.181L108.336 292.519L111.959 292.918L115.766 293.102H119.758H125.1L130.243 292.918L135.57 292.335L140.728 291.383L145.717 290.401L150.661 289.111L155.389 287.545L159.841 285.841L162.497 284.92L164.938 283.723L167.64 282.403L170.495 280.883L174.701 278.611L178.877 276.093L183.053 273.284L187.29 269.845L186.707 271.703L186.338 273.453L186.123 275.141V277.076V280.131L186.706 283.201L187.105 284.537L187.643 285.841L188.211 287.192L188.979 288.543V288.912H200.078H230.382H242.94H248.467L247.914 287.546L247.545 286.072L247.207 284.306L246.977 282.618L246.808 280.714L246.977 278.826L247.207 276.892L247.76 274.973L253.072 257.994L257.831 242.964L262.252 229.409L266.044 217.557L269.483 207.072L272.353 197.907L274.994 189.924L277.143 183.077L277.711 181.112L278.034 179.408L278.433 177.52L278.633 175.571L278.817 172.362V170.259L278.633 166.283L278.034 162.245L277.297 158.423L275.962 154.846L274.457 151.361L272.492 147.937L270.42 144.883L267.963 142.042L265.307 139.187L262.437 136.869L259.366 134.582L256.143 132.709L252.688 131.158L249.065 129.838L245.274 128.886L241.251 128.134L237.413 127.52L233.054 126.952L228.295 126.399L223.305 125.985L218.193 125.632L212.835 125.402L207.294 125.279H201.583H197.576L193.384 125.278ZM203.301 213.351L200.43 223.114L199.478 225.755L198.342 228.272L197.191 230.729L196.07 233.001L194.673 235.319L193.384 237.422L191.849 239.479L190.314 241.245L188.794 242.964L187.289 244.668L185.355 246.142L183.451 247.892L181.578 249.442L179.291 250.763L176.819 252.083L174.317 253.434L172.413 254.37L170.494 255.138L168.407 255.921L166.273 256.489L164.2 257.042L162.112 257.441L157.707 258.193L153.531 258.577H151.228L148.925 258.377L147.022 257.994L145.333 257.641L143.813 257.042L142.447 256.29L141.326 255.138L139.991 253.818L139.224 252.651L138.456 251.331L137.887 249.98L137.504 248.46L137.304 246.802V245.252L137.703 243.502L138.287 241.613L138.839 240.109L139.76 238.574L140.727 237.223L141.71 235.672L143.045 234.337L144.35 233.001L145.717 231.88L147.206 230.729L148.925 229.777L151.059 228.641L153.531 227.689L156.171 226.507L162.68 224.42L170.494 222.132L172.413 221.564L174.701 221.011L178.324 220.243L181.962 219.322L185.524 218.309L189.193 217.557L192.8 216.62L196.224 215.454L199.893 214.502L203.301 213.351Z" fill="black"/>
</svg>
